# xmcd
#
# Track frame offsets: 
#        150
#        6390
#        11755
#        19645
#        27620
#        35475
#        44747
#        59777
#        72902
#        87227
#        100235
#        123600
#        140617
#        159255
#        178585
#        192897
#        218975
#        231610
#        241080
#        243140
#        247017
#        257462
#        262397
#        272555
#        282987
#        291802
#        325292
#
# Disc length: 4475 seconds
#
# Revision: 0
# Processed by: cddbd v1.5.2PL0 Copyright (c) Steve Scherf et al.
# Submitted via: ExactAudioCopy v0.95b3
#
DISCID=9f11791b
DTITLE=Genesis  - Genesis In The Beginning - Vol.1 - Definitive Editio
DTITLE=n Digital Remastered and Bonus Tracks  FLAC
DYEAR=1900
DGENRE=
TTITLE0=In The Rapids-Mix1 No Intro
TTITLE1=In The Rapids-Mix2 No Intro
TTITLE2=In The Rapids-Mix3 No Intro
TTITLE3=In The Rapids-Mix4 No Intro
TTITLE4=Dancing With The Moonlit Knight,Part2-Mixe 1
TTITLE5=Dancing With The Moonlit Knight,Part2-Mixe 2
TTITLE6=More Fool Me,Studio Demo
TTITLE7=Happy The Man-Rough Mix
TTITLE8=Happy The Man-Cleaner Mix
TTITLE9=Happy The Man-Studio Demo
TTITLE10=Field Of Eternity-A.Phillips\\Private Parts and Pieces
TTITLE11=Studio Take Of Unreleased Genesis Song-Only Your Love
TTITLE12=Silver Song-Studio Take ,Vox Phil
TTITLE13=Silver Song-Studio Demo,Vox Phil
TTITLE14=Only Your Love-Unreleased Song,Vox Phil
TTITLE15=Back In N.Y.C-Studio Demo,Take
TTITLE16=The Grand Parade Of Lifeless Packaging, Studio Demo
TTITLE17=Counting Out Time-Different Bassline&Effects
TTITLE18=BACK IN N.Y.C-STUDIO DEMO,TAKE 2-ending part
TTITLE19=BACK IN N.Y.C-STUDIO DEMO,TAKE 3-ending part
TTITLE20=After The Ordeal-Mix 1
TTITLE21=After The Ordeal-Mix 2
TTITLE22=After The Ordeal-Mix 3
TTITLE23=After The Ordeal-Mix 4
TTITLE24=After The Ordeal-Mix 5
TTITLE25=In The Cage-Studio Demo
TTITLE26=Fly On A Windshield-Studio Demo Uk 1974
EXTD=
EXTT0=
EXTT1=
EXTT2=
EXTT3=
EXTT4=
EXTT5=
EXTT6=
EXTT7=
EXTT8=
EXTT9=
EXTT10=
EXTT11=
EXTT12=
EXTT13=
EXTT14=
EXTT15=
EXTT16=
EXTT17=
EXTT18=
EXTT19=
EXTT20=
EXTT21=
EXTT22=
EXTT23=
EXTT24=
EXTT25=
EXTT26=
PLAYORDER=
